<mxfile host="app.diagrams.net" modified="2022-06-26T12:21:17.565Z" agent="5.0 (Windows NT 10.0; Win64; x64) AppleWebKit/537.36 (KHTML, like Gecko) Chrome/103.0.5060.53 Safari/537.36" etag="woowBq3D7JxK4Qlz6RAx" version="20.0.3" type="github">
  <diagram id="NVLdFYsQr7sc-6fEquGn" name="Page-1">
    <mxGraphModel dx="434" dy="783" grid="1" gridSize="10" guides="1" tooltips="1" connect="1" arrows="1" fold="1" page="1" pageScale="1" pageWidth="827" pageHeight="1169" math="0" shadow="0">
      <root>
        <mxCell id="0" />
        <mxCell id="1" parent="0" />
        <mxCell id="HoprCaAgaAyW08Zz6HpF-1" value="&lt;font face=&quot;Verdana&quot;&gt;Sébastien Méric&lt;br&gt;PDG&lt;br&gt;&lt;/font&gt;" style="rounded=1;whiteSpace=wrap;html=1;fontFamily=Arial Nova;" parent="1" vertex="1">
          <mxGeometry x="365" y="110" width="120" height="60" as="geometry" />
        </mxCell>
        <mxCell id="HoprCaAgaAyW08Zz6HpF-3" value="Développeurs" style="swimlane;fontFamily=Verdana;" parent="1" vertex="1">
          <mxGeometry y="240" width="330" height="170" as="geometry">
            <mxRectangle y="240" width="120" height="23" as="alternateBounds" />
          </mxGeometry>
        </mxCell>
        <mxCell id="HoprCaAgaAyW08Zz6HpF-4" value="Armand Colin&lt;br&gt;Apprenti&lt;br&gt;Ingénieur Informatique" style="rounded=1;whiteSpace=wrap;html=1;fontFamily=Verdana;" parent="HoprCaAgaAyW08Zz6HpF-3" vertex="1">
          <mxGeometry x="10" y="30" width="150" height="60" as="geometry" />
        </mxCell>
        <mxCell id="HoprCaAgaAyW08Zz6HpF-5" value="Nicolas Stephan&lt;br&gt;Apprenti&lt;br&gt;Ingénieur Informatique" style="rounded=1;whiteSpace=wrap;html=1;fontFamily=Verdana;" parent="HoprCaAgaAyW08Zz6HpF-3" vertex="1">
          <mxGeometry x="170" y="30" width="150" height="60" as="geometry" />
        </mxCell>
        <mxCell id="2yvcrKg80x7I_Jf2C4ww-1" value="Victor Robin&lt;br&gt;Apprenti&lt;br&gt;Ingénieur Informatique" style="rounded=1;whiteSpace=wrap;html=1;fontFamily=Verdana;" parent="HoprCaAgaAyW08Zz6HpF-3" vertex="1">
          <mxGeometry x="90" y="100" width="150" height="60" as="geometry" />
        </mxCell>
        <mxCell id="HoprCaAgaAyW08Zz6HpF-7" value="" style="endArrow=none;html=1;rounded=0;fontFamily=Verdana;entryX=0.5;entryY=0;entryDx=0;entryDy=0;endFill=0;exitX=0.25;exitY=1;exitDx=0;exitDy=0;" parent="1" source="HoprCaAgaAyW08Zz6HpF-1" target="HoprCaAgaAyW08Zz6HpF-3" edge="1">
          <mxGeometry width="50" height="50" relative="1" as="geometry">
            <mxPoint x="414" y="170" as="sourcePoint" />
            <mxPoint x="390" y="270" as="targetPoint" />
            <Array as="points">
              <mxPoint x="395" y="200" />
              <mxPoint x="165" y="200" />
            </Array>
          </mxGeometry>
        </mxCell>
        <mxCell id="HoprCaAgaAyW08Zz6HpF-8" value="Commerciaux" style="swimlane;fontFamily=Verdana;" parent="1" vertex="1">
          <mxGeometry x="520" y="240" width="330" height="170" as="geometry">
            <mxRectangle y="240" width="120" height="23" as="alternateBounds" />
          </mxGeometry>
        </mxCell>
        <mxCell id="HoprCaAgaAyW08Zz6HpF-9" value="Khadija Dally&lt;br&gt;Apprentie&lt;br&gt;Commerciale" style="rounded=1;whiteSpace=wrap;html=1;fontFamily=Verdana;" parent="HoprCaAgaAyW08Zz6HpF-8" vertex="1">
          <mxGeometry x="10" y="30" width="150" height="60" as="geometry" />
        </mxCell>
        <mxCell id="HoprCaAgaAyW08Zz6HpF-10" value="Merveille Moussounda&lt;br&gt;Apprentie&lt;br&gt;Commerciale" style="rounded=1;whiteSpace=wrap;html=1;fontFamily=Verdana;" parent="HoprCaAgaAyW08Zz6HpF-8" vertex="1">
          <mxGeometry x="170" y="30" width="150" height="60" as="geometry" />
        </mxCell>
        <mxCell id="HoprCaAgaAyW08Zz6HpF-11" value="Yanis Gherous&lt;br&gt;Apprenti&lt;br&gt;Commercial" style="rounded=1;whiteSpace=wrap;html=1;fontFamily=Verdana;" parent="HoprCaAgaAyW08Zz6HpF-8" vertex="1">
          <mxGeometry x="90" y="100" width="150" height="60" as="geometry" />
        </mxCell>
        <mxCell id="HoprCaAgaAyW08Zz6HpF-27" value="" style="edgeStyle=orthogonalEdgeStyle;rounded=0;orthogonalLoop=1;jettySize=auto;html=1;fontFamily=Verdana;endArrow=none;endFill=0;" parent="1" source="HoprCaAgaAyW08Zz6HpF-12" target="HoprCaAgaAyW08Zz6HpF-1" edge="1">
          <mxGeometry relative="1" as="geometry" />
        </mxCell>
        <mxCell id="HoprCaAgaAyW08Zz6HpF-12" value="Intelligence Artificielle" style="swimlane;fontFamily=Verdana;" parent="1" vertex="1">
          <mxGeometry x="340" y="240" width="170" height="100" as="geometry">
            <mxRectangle y="240" width="120" height="23" as="alternateBounds" />
          </mxGeometry>
        </mxCell>
        <mxCell id="HoprCaAgaAyW08Zz6HpF-13" value="Georges Bressange&lt;br&gt;Expert&lt;br&gt;Intelligence Artificielle" style="rounded=1;whiteSpace=wrap;html=1;fontFamily=Verdana;" parent="HoprCaAgaAyW08Zz6HpF-12" vertex="1">
          <mxGeometry x="10" y="30" width="150" height="60" as="geometry" />
        </mxCell>
        <mxCell id="HoprCaAgaAyW08Zz6HpF-17" value="" style="endArrow=none;html=1;rounded=0;fontFamily=Verdana;entryX=0.5;entryY=0;entryDx=0;entryDy=0;exitX=0.5;exitY=1;exitDx=0;exitDy=0;endFill=0;" parent="1" source="HoprCaAgaAyW08Zz6HpF-1" target="HoprCaAgaAyW08Zz6HpF-12" edge="1">
          <mxGeometry width="50" height="50" relative="1" as="geometry">
            <mxPoint x="440" y="280" as="sourcePoint" />
            <mxPoint x="490" y="230" as="targetPoint" />
          </mxGeometry>
        </mxCell>
        <mxCell id="HoprCaAgaAyW08Zz6HpF-18" value="" style="endArrow=none;html=1;rounded=0;fontFamily=Verdana;entryX=0.5;entryY=0;entryDx=0;entryDy=0;endFill=0;" parent="1" target="HoprCaAgaAyW08Zz6HpF-8" edge="1">
          <mxGeometry width="50" height="50" relative="1" as="geometry">
            <mxPoint x="455" y="170" as="sourcePoint" />
            <mxPoint x="435" y="250" as="targetPoint" />
            <Array as="points">
              <mxPoint x="455" y="200" />
              <mxPoint x="685" y="200" />
            </Array>
          </mxGeometry>
        </mxCell>
        <mxCell id="HoprCaAgaAyW08Zz6HpF-19" value="Christophe Legrenzi&lt;br&gt;PDG Acadys&lt;br&gt;Conseillé" style="rounded=1;whiteSpace=wrap;html=1;fontFamily=Verdana;" parent="1" vertex="1">
          <mxGeometry x="576" y="110" width="140" height="60" as="geometry" />
        </mxCell>
        <mxCell id="HoprCaAgaAyW08Zz6HpF-21" value="" style="endArrow=none;html=1;rounded=0;fontFamily=Verdana;entryX=0;entryY=0.5;entryDx=0;entryDy=0;exitX=1;exitY=0.5;exitDx=0;exitDy=0;endFill=0;" parent="1" source="HoprCaAgaAyW08Zz6HpF-1" target="HoprCaAgaAyW08Zz6HpF-19" edge="1">
          <mxGeometry width="50" height="50" relative="1" as="geometry">
            <mxPoint x="420" y="300" as="sourcePoint" />
            <mxPoint x="470" y="250" as="targetPoint" />
          </mxGeometry>
        </mxCell>
        <mxCell id="HoprCaAgaAyW08Zz6HpF-26" value="" style="edgeStyle=orthogonalEdgeStyle;rounded=0;orthogonalLoop=1;jettySize=auto;html=1;fontFamily=Verdana;endArrow=none;endFill=0;exitX=0.5;exitY=0;exitDx=0;exitDy=0;" parent="1" source="HoprCaAgaAyW08Zz6HpF-12" target="HoprCaAgaAyW08Zz6HpF-1" edge="1">
          <mxGeometry relative="1" as="geometry" />
        </mxCell>
        <mxCell id="HoprCaAgaAyW08Zz6HpF-28" value="Design UI/UX" style="swimlane;fontFamily=Verdana;" parent="1" vertex="1">
          <mxGeometry x="860" y="240" width="170" height="100" as="geometry">
            <mxRectangle y="240" width="120" height="23" as="alternateBounds" />
          </mxGeometry>
        </mxCell>
        <mxCell id="HoprCaAgaAyW08Zz6HpF-29" value="Bastien Bartys&lt;br&gt;Apprenti&lt;br&gt;Designer" style="rounded=1;whiteSpace=wrap;html=1;fontFamily=Verdana;" parent="HoprCaAgaAyW08Zz6HpF-28" vertex="1">
          <mxGeometry x="10" y="30" width="150" height="60" as="geometry" />
        </mxCell>
        <mxCell id="HoprCaAgaAyW08Zz6HpF-30" value="" style="endArrow=none;html=1;rounded=0;fontFamily=Verdana;exitX=0.5;exitY=0;exitDx=0;exitDy=0;" parent="1" source="HoprCaAgaAyW08Zz6HpF-28" edge="1">
          <mxGeometry width="50" height="50" relative="1" as="geometry">
            <mxPoint x="950" y="200" as="sourcePoint" />
            <mxPoint x="680" y="200" as="targetPoint" />
            <Array as="points">
              <mxPoint x="945" y="200" />
            </Array>
          </mxGeometry>
        </mxCell>
      </root>
    </mxGraphModel>
  </diagram>
</mxfile>
